<svg width="90" height="35" xmlns="http://www.w3.org/2000/svg"><g fill="#199FFB" fill-rule="evenodd"><path d="M28.856 21.76c-.08-.123-.064-.24.048-.352.064-.043.233-.06.508-.052s.495.052.66.132c.224.107.296.373.216.8-.048.208-.21.52-.488.936-.123.17-.305.356-.548.556-.243.2-.439.33-.588.388-.544.24-.947.267-1.208.08a.936.936 0 0 1-.34-.384.993.993 0 0 1-.108-.512 6.349 6.349 0 0 1 .328-1.992c.23-.667.441-1.163.636-1.488.195-.325.383-.581.564-.768.181-.187.323-.31.424-.368.256-.15.581-.192.976-.128.304.08.512.17.624.272.01.021.035.056.072.104.128.165.125.32-.008.464-.08.08-.152.083-.216.008a.603.603 0 0 0-.156-.18 1.778 1.778 0 0 0-.184-.108.959.959 0 0 0-.116-.056c-.085-.059-.217-.077-.396-.056a.786.786 0 0 0-.424.164 3.087 3.087 0 0 0-.364.384 2.72 2.72 0 0 0-.32.468 6.8 6.8 0 0 0-.68 1.58c-.133.493-.213.839-.24 1.036-.027.197-.044.35-.052.456a2.083 2.083 0 0 0 0 .316.6.6 0 0 0 .064.248c.035.061.081.11.14.148.128.085.333.077.616-.024.176-.021.376-.124.6-.308.224-.184.41-.393.56-.628.277-.512.395-.837.352-.976-.021-.059-.076-.09-.164-.096a7.253 7.253 0 0 0-.4-.008c-.179 0-.308-.019-.388-.056zm3.328.264a.846.846 0 0 0 .276-.2c.093-.096.14-.18.14-.252 0-.072-.037-.13-.112-.176a.329.329 0 0 0-.264-.028.773.773 0 0 0-.312.184c-.107.096-.195.19-.264.284-.07.093-.096.148-.08.164.021.043.107.067.256.072.15.005.27-.01.36-.048zm-.016 1.296a.112.112 0 0 1 .028-.016c.003 0 .008-.003.016-.008s.012-.01.012-.016c.037-.032.084-.076.14-.132.056-.056.097-.084.124-.084.027 0 .055.013.084.04.03.027.05.043.06.048.085 0 .073.07-.036.208-.11.139-.244.259-.404.36a.694.694 0 0 1-.604.164.837.837 0 0 1-.556-.348c-.165-.208-.227-.541-.184-1 .021-.299.15-.604.384-.916.235-.312.483-.519.744-.62a.424.424 0 0 1 .208-.076 2.07 2.07 0 0 1 .324.028.53.53 0 0 1 .356.192c.133.133.2.288.2.464-.021.128-.104.275-.248.44a1.675 1.675 0 0 1-.52.4c-.299.09-.541.072-.728-.056-.096-.037-.161-.03-.196.024-.035.053-.065.187-.092.4-.043.368.045.57.264.608l.096.02a9.1 9.1 0 0 1 .084.016.687.687 0 0 0 .068.008.25.25 0 0 0 .08-.004.455.455 0 0 0 .124-.052 1.497 1.497 0 0 1 .172-.092zm1.568-2.184a.136.136 0 0 1-.092-.056.164.164 0 0 1-.036-.1c0-.035.023-.083.068-.144.045-.061.085-.09.12-.088.035.003.115.003.24 0a.908.908 0 0 0 .252-.028.144.144 0 0 0 .088-.088c.048-.133.115-.277.2-.432.16-.31.288-.504.384-.584.096-.08.21-.064.344.048a.456.456 0 0 1 .068.124c.003.019-.015.065-.052.14a4.585 4.585 0 0 1-.164.292c-.072.12-.121.207-.148.26-.09.128-.104.197-.04.208.064.01.223-.004.476-.044.253-.04.393.033.42.22.016.128.003.205-.04.232-.043.027-.165.04-.368.04-.17.027-.332.041-.484.044-.152.003-.244.01-.276.02-.064.016-.115.067-.152.152-.016.01-.035.04-.056.088-.032.064-.099.19-.2.376a6.737 6.737 0 0 0-.284 1.076c-.045.29-.055.461-.028.512.027.05.12.084.28.1.272.032.565-.045.88-.232l.216-.128c.053-.085.11-.059.168.08a.592.592 0 0 1-.012.136.396.396 0 0 1-.088.136.858.858 0 0 1-.236.176c-.405.256-.795.347-1.168.272a.487.487 0 0 1-.26-.172.784.784 0 0 1-.172-.276l-.04-.064c-.032-.027-.043-.164-.032-.412.01-.248.03-.424.056-.528.027-.104.075-.25.144-.436.07-.187.112-.31.128-.368l.216-.464-.32-.088zm6.592-.152c.053.096.08.187.08.272 0 .085-.045.203-.136.352a1.343 1.343 0 0 1-.072.176.385.385 0 0 0-.04.096c-.043.08-.103.1-.18.06a.368.368 0 0 1-.172-.212c-.037-.144-.024-.264.04-.36.101-.101.101-.152 0-.152-.064 0-.187.05-.368.152a1.938 1.938 0 0 0-.424.304 1.018 1.018 0 0 0-.184.22.475.475 0 0 0-.032.196.98.98 0 0 0 .052.292c.035.11.07.183.108.22a2.1 2.1 0 0 0 .192.336c.155.341.196.587.124.736-.072.15-.268.235-.588.256a1.016 1.016 0 0 1-.548-.08.554.554 0 0 1-.308-.328c-.059-.123-.059-.2 0-.232.032 0 .076.016.132.048.056.032.097.053.124.064.117.101.27.135.456.1.187-.035.29-.103.312-.204 0-.027-.027-.12-.08-.28-.277-.395-.416-.76-.416-1.096 0-.23.11-.424.328-.584a2.147 2.147 0 0 1 1-.608c.181 0 .325.027.432.08.059.021.115.08.168.176zm1.328 2.48l.136-.008c.075-.032.035.155-.12.56a4.85 4.85 0 0 0-.084.14 2.276 2.276 0 0 1-.116.18c-.027.043-.048.064-.064.064-.176-.027-.295-.092-.356-.196-.061-.104-.076-.263-.044-.476.016-.048.032-.107.048-.176.027-.15.053-.235.08-.256.021-.027.021-.05 0-.072 0-.07.048-.227.144-.472-.032-.043-.019-.09.04-.14.059-.05.079-.09.06-.116-.019-.027-.01-.077.028-.152.037-.075.081-.16.132-.256.05-.096.081-.16.092-.192-.005-.016.039-.125.132-.328a7.91 7.91 0 0 1 .18-.376c.043-.021.025-.039-.052-.052a3.336 3.336 0 0 0-.46-.02c-.23 0-.395-.03-.496-.088-.128-.139-.088-.213.12-.224l1.048-.088.024-.136c.133-.23.21-.41.232-.544.09-.144.144-.28.16-.408a3.73 3.73 0 0 0 .192-.332c.037-.077.059-.119.064-.124.059-.048.1-.072.124-.072.024 0 .076.027.156.08.203.128.253.237.152.328a2.354 2.354 0 0 0-.096.256.954.954 0 0 0-.208.432c-.112.235-.181.352-.208.352 0 .053.04.08.12.08.176-.01.29-.021.344-.032.053-.01.088-.019.104-.024a.275.275 0 0 1 .144.024c.043.064.068.13.076.196.008.067-.015.116-.068.148-.005 0-.061.016-.168.048-.085.021-.328.05-.728.088-.139.267-.22.425-.244.476a.37.37 0 0 0-.036.092l-.336.704c-.021 0-.032.016-.032.048.021.064.019.107-.008.128a.643.643 0 0 0-.112.128c.027.027.013.088-.04.184 0 .09-.037.227-.112.408.005.096.01.157.016.184.005.027.019.037.04.032zm2.104-.28c0 .187.096.224.288.112.128-.075.285-.205.472-.392.187-.187.352-.377.496-.572.144-.195.237-.399.28-.612a.79.79 0 0 0-.104-.188c-.048-.067-.09-.103-.128-.108-.165 0-.416.232-.752.696l-.264.392a2.244 2.244 0 0 0-.168.34c-.08.184-.12.295-.12.332zm2.048-.104a.294.294 0 0 1 .244-.02c.077.03.116.09.116.184 0 .093-.065.188-.196.284a.637.637 0 0 1-.372.144c-.16 0-.315-.285-.464-.856-.437.427-.661.648-.672.664-.059.101-.205.197-.44.288a.606.606 0 0 1-.264.008c-.107-.016-.16-.036-.16-.06s-.001-.037-.004-.04c-.003-.003-.015-.004-.036-.004a.377.377 0 0 0-.144-.096.411.411 0 0 1-.072-.24c0-.09.024-.232.072-.424.027-.261.185-.599.476-1.012.29-.413.556-.692.796-.836.155-.155.347-.17.576-.048.165.096.31.272.432.528.027.133.027.336 0 .608a2.525 2.525 0 0 0-.096.712c-.01.101.001.173.036.216.035.043.092.043.172 0zm1.224.656c-.053.075-.101.112-.144.112-.043 0-.107-.043-.192-.128a.339.339 0 0 1-.104-.12c-.032-.075.021-.408.16-1 .016-.133.11-.413.28-.84.17-.427.31-.717.416-.872.107-.08.21-.07.312.032.053.043.064.115.032.216-.043.139-.13.35-.26.636-.13.285-.188.428-.172.428.016 0 .04-.01.072-.032.059-.101.201-.24.428-.416.227-.176.37-.279.428-.308a2.48 2.48 0 0 1 .188-.084l.116-.048a.64.64 0 0 1 .372-.064c.13.016.212.064.244.144 0 .053.032.096.096.128l.04.048c0 .048-.07.076-.208.084-.139.008-.293.05-.464.124a1.133 1.133 0 0 1-.132.076c-.067.035-.112.06-.136.076-.024.016-.065.04-.124.072a1.278 1.278 0 0 0-.132.08l-.116.08c-.048.032-.09.061-.124.088l-.116.088c-.165.139-.32.33-.464.576-.037.037-.076.135-.116.292-.04.157-.06.255-.06.292a.636.636 0 0 1-.12.24zm3.024.024a1.077 1.077 0 0 1-.188-.356 1.583 1.583 0 0 1-.044-.404c0-.16.019-.333.056-.52.096-.453.168-.75.216-.888.016-.059-.01-.097-.076-.116a.794.794 0 0 0-.236-.024c-.09.003-.144-.001-.16-.012l-.032-.048a.157.157 0 0 0-.028-.084c-.019-.03-.013-.064.016-.104.03-.04.06-.063.092-.068l.164-.024c.077-.01.14-.021.188-.032.16-.032.272-.09.336-.176.07-.176.157-.375.264-.596.107-.221.179-.353.216-.396.09-.048.157-.068.2-.06.043.008.09.055.144.14.059.053.077.115.056.184-.01.059-.139.323-.384.792.064.01.15.01.256 0 .17-.032.317-.04.44-.024.23 0 .352.099.368.296.01.059 0 .093-.032.104-.032.01-.24.023-.624.036-.384.013-.579.03-.584.052-.053.037-.144.293-.272.768-.064.293-.099.56-.104.8-.005.24.027.405.096.496.048.048.14.059.276.032a.828.828 0 0 0 .376-.184c.115-.096.205-.119.272-.068.067.05.047.15-.06.3a.95.95 0 0 1-.388.344c-.163.08-.307.103-.432.068a1.01 1.01 0 0 1-.388-.228zm3.752-2.312c-.08-.09-.2-.077-.36.04-.053.016-.132.075-.236.176a2.683 2.683 0 0 0-.268.3c-.075.099-.099.156-.072.172-.005.01.001.019.02.024.019.005.043.01.072.012l.084.008a.362.362 0 0 0 .076 0c.024-.003.077-.01.16-.024.083-.013.135-.024.156-.032a.843.843 0 0 0 .112-.06c.064-.037.157-.144.28-.32.037-.144.03-.243-.024-.296zm-1.76.432l.136-.016c.075 0 .112.016.112.048.037.07.096.05.176-.056a1.02 1.02 0 0 0 .08-.136c.075-.117.185-.241.332-.372.147-.13.268-.223.364-.276a.902.902 0 0 1 .456-.092c.139.013.28.097.424.252.09.07.14.176.148.32a.687.687 0 0 1-.076.376c-.021.08-.105.181-.252.304a1.514 1.514 0 0 1-.404.256 2.352 2.352 0 0 1-.424.052c-.17.008-.283-.001-.336-.028-.037-.021-.067.012-.088.1-.021.088-.039.21-.052.368-.013.157-.01.253.012.288.021.035.043.06.064.076.187.192.384.203.592.032.064-.059.135-.128.212-.208.077-.08.135-.136.172-.168.043-.075.133-.093.272-.056.053.048.079.093.076.136a.536.536 0 0 1-.064.184.931.931 0 0 1-.216.26 2.526 2.526 0 0 1-.276.22.992.992 0 0 1-.848.064c-.208-.085-.343-.204-.404-.356s-.079-.348-.052-.588c.027-.24.037-.39.032-.448-.005-.059-.023-.101-.052-.128a2.439 2.439 0 0 1-.084-.08c-.059-.059-.09-.105-.096-.14a.278.278 0 0 1 .012-.12c.013-.045.03-.068.052-.068zm5.768-2.984c.027 0 .067.02.12.06.053.04.088.09.104.148 0 .176-.11.525-.332 1.048-.221.523-.356.855-.404.996a6.782 6.782 0 0 1-.132.36l-.096.236c-.024.059-.045.13-.064.212a2.98 2.98 0 0 1-.128.38 13.26 13.26 0 0 0-.32.904 1.527 1.527 0 0 0-.028.116.612.612 0 0 0-.016.116c0 .027-.001.063-.004.108a.622.622 0 0 0 .004.124c.005.037.01.084.012.14.003.056-.02.1-.068.132-.059.021-.101.028-.128.02a.739.739 0 0 1-.168-.116c-.053-.085-.08-.235-.08-.448.016-.15.077-.415.184-.796.107-.381.184-.628.232-.74.032-.128.039-.207.02-.236-.019-.03-.081-.05-.188-.06a.701.701 0 0 0-.548.184c-.168.144-.355.377-.56.7-.205.323-.279.58-.22.772.07.107.235.09.496-.048.032-.016.133-.061.304-.136.059 0 .088.033.088.1s.027.11.08.132c.032.032-.012.09-.132.176-.12.085-.233.16-.34.224a1.252 1.252 0 0 1-.384.056.542.542 0 0 1-.288-.104c-.299-.181-.341-.581-.128-1.2.139-.33.381-.675.728-1.032.085-.085.261-.168.528-.248.267-.08.464-.075.592.016.096.021.157.019.184-.008.027-.027.161-.352.404-.976a67.725 67.725 0 0 1 .444-1.124l.048-.128c.01-.03.021-.05.032-.06h.152zm2.592 2.376l.088-.272c.027-.021.076-.137.148-.348a5.6 5.6 0 0 1 .204-.524c.192-.427.325-.744.4-.952.032-.048.067-.104.104-.168.075-.139.125-.213.152-.224a.275.275 0 0 1 .164.024.314.314 0 0 1 .152.12c.035.053.044.104.028.152-.016.048-.121.277-.316.688-.195.41-.343.747-.444 1.008-.101.261-.192.51-.272.744-.08.235-.133.387-.16.456l-.04.176.2-.192a5.61 5.61 0 0 0 .304-.256c.139-.123.225-.195.26-.216.035-.021.113-.059.236-.112.208-.09.41-.136.608-.136.197 0 .363.112.496.336.128.24.11.499-.056.776-.08.059-.123.12-.128.184-.005.064-.141.243-.408.536a2.973 2.973 0 0 1-.548.432c-.227.144-.383.23-.468.26-.085.03-.155.05-.208.06-.133.016-.219.03-.256.04a.563.563 0 0 1-.196-.04c-.024-.016-.052-.059-.084-.128-.064-.07-.09-.13-.08-.184.064 0 .101-.01.112-.032 0-.032.05-.043.152-.032.101.01.288-.064.56-.224.272-.16.544-.365.816-.616.197-.256.321-.443.372-.56.05-.117.057-.216.02-.296-.01-.053-.09-.072-.236-.056a.983.983 0 0 0-.444.176c-.576.357-.963.757-1.16 1.2l-.04.08c0 .021-.03.048-.092.08a.353.353 0 0 1-.156.048c-.085-.037-.136-.096-.152-.176-.075-.053-.112-.1-.112-.14 0-.04.037-.193.112-.46.043-.203.097-.413.164-.632.067-.219.113-.339.14-.36a.476.476 0 0 0 .064-.24zm4.216 1.896a.856.856 0 0 1-.2.14.677.677 0 0 1-.196.092c-.024 0-.036.012-.036.036 0 .024-.07.059-.208.104-.139.045-.23.068-.276.068-.045 0-.099-.028-.16-.084a.547.547 0 0 1-.12-.14 4.032 4.032 0 0 0-.072-.136 1.218 1.218 0 0 1-.06-.12c-.053-.133-.059-.25-.016-.352.064-.24.172-.579.324-1.016.152-.437.268-.717.348-.84.043-.064.099-.093.168-.088.07.005.13.048.18.128.05.08.072.144.064.192a1.447 1.447 0 0 1-.14.312c-.021.064-.048.13-.08.2s-.05.108-.052.116c-.003.008-.01.044-.02.108-.037.17-.07.256-.096.256-.027.027-.059.123-.096.288-.09.395-.112.616-.064.664.315 0 .653-.235 1.016-.704.027-.133.075-.341.144-.624.07-.283.12-.515.152-.696a.449.449 0 0 1 .072-.132c.016-.013.053-.02.112-.02.059 0 .101.005.128.016.027.01.059.043.096.096a.62.62 0 0 1 .06.356.76.76 0 0 1-.144.376c-.083.115-.161.42-.236.916-.048.203-.107.515-.176.936a3.878 3.878 0 0 0-.16.484 2.34 2.34 0 0 1-.184.46c-.421.87-.95 1.325-1.584 1.368-.133.01-.213.013-.24.008a.923.923 0 0 1-.176-.08c-.123-.08-.184-.133-.184-.16 0-.08.067-.12.2-.12.037.021.1.032.188.032a.326.326 0 0 0 .204-.056.58.58 0 0 1 .24-.088c.32-.155.59-.416.808-.784.208-.32.4-.856.576-1.608l-.104.096zm4.68-1.144a.846.846 0 0 0 .276-.2c.093-.096.14-.18.14-.252 0-.072-.037-.13-.112-.176a.329.329 0 0 0-.264-.028.773.773 0 0 0-.312.184c-.107.096-.195.19-.264.284-.07.093-.096.148-.08.164.021.043.107.067.256.072.15.005.27-.01.36-.048zm-.016 1.296a.112.112 0 0 1 .028-.016c.003 0 .008-.003.016-.008s.012-.01.012-.016c.037-.032.084-.076.14-.132.056-.056.097-.084.124-.084.027 0 .055.013.084.04.03.027.05.043.06.048.085 0 .073.07-.036.208-.11.139-.244.259-.404.36a.694.694 0 0 1-.604.164.837.837 0 0 1-.556-.348c-.165-.208-.227-.541-.184-1 .021-.299.15-.604.384-.916.235-.312.483-.519.744-.62a.424.424 0 0 1 .208-.076 2.07 2.07 0 0 1 .324.028.53.53 0 0 1 .356.192c.133.133.2.288.2.464-.021.128-.104.275-.248.44a1.675 1.675 0 0 1-.52.4c-.299.09-.541.072-.728-.056-.096-.037-.161-.03-.196.024-.035.053-.065.187-.092.4-.043.368.045.57.264.608l.096.02a9.1 9.1 0 0 1 .084.016.687.687 0 0 0 .068.008.25.25 0 0 0 .08-.004.455.455 0 0 0 .124-.052 1.497 1.497 0 0 1 .172-.092zm2.248-2.328c.037 0 .079.024.124.072a.448.448 0 0 1 .1.168c0 .17-.075.355-.224.552a1.863 1.863 0 0 0-.272.656 1.266 1.266 0 0 0-.064.148 2.994 2.994 0 0 1-.08.188l-.04.176.536-.552c.373-.373.645-.59.816-.652.17-.061.301.004.392.196a1 1 0 0 1 .104.236c.01.05.01.196 0 .436v.496l.344-.12c.123-.053.259-.085.408-.096-.016.144-.096.292-.24.444-.144.152-.288.228-.432.228a.376.376 0 0 1-.236-.104.568.568 0 0 1-.172-.228c-.032-.083-.048-.276-.048-.58v-.296c0-.08-.027-.104-.08-.072-.09.053-.34.293-.748.72s-.687.64-.836.64c-.043 0-.093-.03-.152-.088-.059-.059-.092-.11-.1-.152a2.151 2.151 0 0 1-.012-.296c0-.272.152-.739.456-1.4l.264-.56a.74.74 0 0 1 .112-.16h.08zm2.92.144a.136.136 0 0 1-.092-.056.164.164 0 0 1-.036-.1c0-.035.023-.083.068-.144.045-.061.085-.09.12-.088.035.003.115.003.24 0a.908.908 0 0 0 .252-.028.144.144 0 0 0 .088-.088c.048-.133.115-.277.2-.432.16-.31.288-.504.384-.584.096-.08.21-.064.344.048a.456.456 0 0 1 .068.124c.003.019-.015.065-.052.14a4.585 4.585 0 0 1-.164.292c-.072.12-.121.207-.148.26-.09.128-.104.197-.04.208.064.01.223-.004.476-.044.253-.04.393.033.42.22.016.128.003.205-.04.232-.043.027-.165.04-.368.04-.17.027-.332.041-.484.044-.152.003-.244.01-.276.02-.064.016-.115.067-.152.152-.016.01-.035.04-.056.088-.032.064-.099.19-.2.376a6.737 6.737 0 0 0-.284 1.076c-.045.29-.055.461-.028.512.027.05.12.084.28.1.272.032.565-.045.88-.232l.216-.128c.053-.085.11-.059.168.08a.592.592 0 0 1-.012.136.396.396 0 0 1-.088.136.858.858 0 0 1-.236.176c-.405.256-.795.347-1.168.272a.487.487 0 0 1-.26-.172.784.784 0 0 1-.172-.276l-.04-.064c-.032-.027-.043-.164-.032-.412.01-.248.03-.424.056-.528.027-.104.075-.25.144-.436.07-.187.112-.31.128-.368l.216-.464-.32-.088zm3.224.872a.29.29 0 0 0 .056.184.174.174 0 0 0 .144.072c.16 0 .299-.08.416-.24a1.09 1.09 0 0 0 .212-.456c.024-.144.007-.237-.052-.28-.128-.064-.31.008-.544.216-.144.133-.25.25-.32.352l-.104.168a.442.442 0 0 1 .128-.028c.043-.003.064.001.064.012zm-.336.368c-.128.341-.192.595-.192.76 0 .165.023.284.068.356.045.072.13.108.256.108a.908.908 0 0 0 .308-.044c.08-.03.195-.1.344-.212l.272-.16c.021 0 .043-.013.064-.04.048-.021.104-.013.168.024.064.037.096.085.096.144-.01.043-.059.112-.144.208-.085.096-.15.147-.192.152a1.157 1.157 0 0 0-.12.064h.008c-.048.064-.096.096-.144.096h-.064c-.021.043-.092.085-.212.128s-.233.064-.34.064a.728.728 0 0 1-.58-.268.934.934 0 0 1-.212-.668c.016-.395.147-.816.392-1.264.341-.635.72-.952 1.136-.952a.84.84 0 0 1 .344.088.58.58 0 0 1 .336.384c.021.155.016.29-.016.408-.128.39-.347.672-.656.848a.593.593 0 0 1-.32.08c-.25 0-.432-.08-.544-.24l-.056-.064zm3.616-1c.256-.181.45-.272.58-.272.13 0 .223.05.276.152.096.17.09.323-.016.456a.475.475 0 0 1-.184.136.484.484 0 0 1-.16.048c-.032 0-.072-.024-.12-.072-.048-.048-.075-.088-.08-.12 0-.027-.075.02-.224.14-.15.12-.248.204-.296.252-.123.15-.339.533-.648 1.152a2.052 2.052 0 0 0-.096.232c-.059.165-.104.253-.136.264-.032.01-.083.005-.152-.016-.272-.085-.283-.31-.032-.672.037-.075.11-.268.216-.58.107-.312.168-.487.184-.524.01-.09.005-.155-.016-.192a.136.136 0 0 0-.128-.072.465.465 0 0 1-.112-.008c-.043-.005-.064-.061-.064-.168.01-.101.072-.187.184-.256.192-.101.344-.104.456-.008.07.048.104.224.104.528.277-.235.432-.368.464-.4zm1.304 2.192l-.04-.16c-.037-.021-.059-.044-.064-.068-.005-.024.003-.065.024-.124.07-.123.192-.401.368-.836.176-.435.275-.692.296-.772 0-.053.027-.107.08-.16.09-.07.176-.024.256.136.037.07.056.139.056.208 0 .07-.059.256-.176.56-.133.325-.263.613-.388.864-.125.25-.207.379-.244.384a.111.111 0 0 1-.048.008l-.12-.04zm1.024-3.84c.075 0 .139.013.192.04.037.085.105.187.204.304.099.117.148.197.148.24 0 .123-.012.197-.036.224-.024.027-.095.04-.212.04-.117 0-.228-.055-.332-.164a.493.493 0 0 1-.156-.34c0-.027.032-.088.096-.184a.868.868 0 0 0 .096-.16zm1.472 1.264c.037 0 .079.024.124.072a.448.448 0 0 1 .1.168c0 .17-.075.355-.224.552a1.863 1.863 0 0 0-.272.656 1.266 1.266 0 0 0-.064.148 2.994 2.994 0 0 1-.08.188l-.04.176.536-.552c.373-.373.645-.59.816-.652.17-.061.301.004.392.196a1 1 0 0 1 .104.236c.01.05.01.196 0 .436v.496l.344-.12c.123-.053.259-.085.408-.096-.016.144-.096.292-.24.444-.144.152-.288.228-.432.228a.376.376 0 0 1-.236-.104.568.568 0 0 1-.172-.228c-.032-.083-.048-.276-.048-.58v-.296c0-.08-.027-.104-.08-.072-.09.053-.34.293-.748.72s-.687.64-.836.64c-.043 0-.093-.03-.152-.088-.059-.059-.092-.11-.1-.152a2.151 2.151 0 0 1-.012-.296c0-.272.152-.739.456-1.4l.264-.56a.74.74 0 0 1 .112-.16h.08zm4.208.568c-.005-.085-.02-.141-.044-.168-.024-.027-.068-.035-.132-.024-.208.032-.435.203-.68.512-.08.107-.148.239-.204.396a1.61 1.61 0 0 0-.096.448c-.008.141.015.223.068.244.32-.01.605-.208.856-.592.181-.25.259-.523.232-.816zm-.432-.624a.46.46 0 0 1 .36-.016c.128.016.275.096.44.24a1.2 1.2 0 0 1 .28.424c.07.15.053.29-.048.424a.974.974 0 0 0-.18.256c-.05.101-.081.179-.092.232-.005.043-.141.576-.408 1.6-.24.827-.48 1.304-.72 1.432a.569.569 0 0 1-.464-.024c-.277-.123-.472-.363-.584-.72-.048-.165-.057-.259-.028-.28.03-.021.076-.021.14 0 .064.021.105.059.124.112a.996.996 0 0 0 .132.224c.07.096.12.147.152.152.15.07.267.075.352.016a.92.92 0 0 0 .22-.268c.061-.11.13-.284.204-.524.224-.79.363-1.235.416-1.336l-.16.144c-.15.139-.28.23-.392.272-.032.043-.11.067-.236.072a1.045 1.045 0 0 1-.364-.048.793.793 0 0 1-.208-.136.914.914 0 0 1-.104-.196c-.043-.099-.05-.239-.024-.42.027-.181.075-.363.144-.544.101-.208.261-.43.48-.664.219-.235.408-.376.568-.424zM27.424 33.76a1.077 1.077 0 0 1-.188-.356 1.583 1.583 0 0 1-.044-.404c0-.16.019-.333.056-.52.096-.453.168-.75.216-.888.016-.059-.01-.097-.076-.116a.794.794 0 0 0-.236-.024c-.09.003-.144-.001-.16-.012l-.032-.048a.157.157 0 0 0-.028-.084c-.019-.03-.013-.064.016-.104.03-.04.06-.063.092-.068l.164-.024c.077-.01.14-.021.188-.032.16-.032.272-.09.336-.176.07-.176.157-.375.264-.596.107-.221.179-.353.216-.396.09-.048.157-.068.2-.06.043.008.09.055.144.14.059.053.077.115.056.184-.01.059-.139.323-.384.792.064.01.15.01.256 0 .17-.032.317-.04.44-.024.23 0 .352.099.368.296.01.059 0 .093-.032.104-.032.01-.24.023-.624.036-.384.013-.579.03-.584.052-.053.037-.144.293-.272.768-.064.293-.099.56-.104.8-.005.24.027.405.096.496.048.048.14.059.276.032a.828.828 0 0 0 .376-.184c.115-.096.205-.119.272-.068.067.05.047.15-.06.3a.95.95 0 0 1-.388.344c-.163.08-.307.103-.432.068a1.01 1.01 0 0 1-.388-.228zm4.736-1.904c.032.117.048.223.048.316s-.013.324-.04.692c-.048.272-.07.435-.068.488.003.053.039.11.108.168.155.128.16.23.016.304a.48.48 0 0 1-.224.032.29.29 0 0 1-.14-.084.861.861 0 0 1-.108-.128l-.056-.084a.769.769 0 0 1-.072-.2 3.838 3.838 0 0 1-.016-.164c-.005-.067 0-.172.016-.316a3.63 3.63 0 0 0 .024-.264c.059-.261.079-.436.06-.524-.019-.088-.039-.132-.06-.132-.08-.016-.256.103-.528.356s-.568.564-.888.932c-.192.272-.296.408-.312.408-.059.005-.139-.023-.24-.084-.101-.061-.155-.121-.16-.18 0-.07.224-.765.672-2.088.027-.075.093-.247.2-.516a104.414 104.414 0 0 0 .312-.796c.176-.448.288-.747.336-.896a.336.336 0 0 1 .056-.224l.112-.008c0-.01.019 0 .056.032.128.101.192.179.192.232.043.133-.01.387-.16.76-.048.064-.112.207-.192.428s-.14.37-.18.448c-.04.077-.139.299-.296.664a7.146 7.146 0 0 0-.332.9c-.059.139-.077.224-.056.256.021.032.085-.016.192-.144.496-.523.819-.832.968-.928.15-.096.259-.141.328-.136.064.016.143.076.236.18s.159.204.196.3zm2.32.168a.846.846 0 0 0 .276-.2c.093-.096.14-.18.14-.252 0-.072-.037-.13-.112-.176a.329.329 0 0 0-.264-.028.773.773 0 0 0-.312.184c-.107.096-.195.19-.264.284-.07.093-.096.148-.08.164.021.043.107.067.256.072.15.005.27-.01.36-.048zm-.016 1.296a.112.112 0 0 1 .028-.016c.003 0 .008-.003.016-.008s.012-.01.012-.016c.037-.032.084-.076.14-.132.056-.056.097-.084.124-.084.027 0 .055.013.084.04.03.027.05.043.06.048.085 0 .073.07-.036.208-.11.139-.244.259-.404.36a.694.694 0 0 1-.604.164.837.837 0 0 1-.556-.348c-.165-.208-.227-.541-.184-1 .021-.299.15-.604.384-.916.235-.312.483-.519.744-.62a.424.424 0 0 1 .208-.076 2.07 2.07 0 0 1 .324.028.53.53 0 0 1 .356.192c.133.133.2.288.2.464-.021.128-.104.275-.248.44a1.675 1.675 0 0 1-.52.4c-.299.09-.541.072-.728-.056-.096-.037-.161-.03-.196.024-.035.053-.065.187-.092.4-.043.368.045.57.264.608l.096.02a9.1 9.1 0 0 1 .084.016.687.687 0 0 0 .068.008.25.25 0 0 0 .08-.004.455.455 0 0 0 .124-.052 1.497 1.497 0 0 1 .172-.092zm4.328.04l-.144-.056c0-.048-.077-.107-.232-.176-.293-.24-.427-.379-.4-.416v-.04c-.037 0-.079-.052-.124-.156a.742.742 0 0 1-.068-.296c0-.093.041-.225.124-.396a1.52 1.52 0 0 1 .316-.44 3.76 3.76 0 0 1 .552-.416c.49-.32.84-.419 1.048-.296.16.096.272.23.336.4 0 .336-.048.504-.144.504-.027 0-.04.021-.04.064s-.04.099-.12.168c-.235.17-.368.184-.4.04-.027-.053-.05-.08-.072-.08-.032-.016-.048-.05-.048-.104l.048-.088c.032 0 .085-.063.16-.188s.112-.207.112-.244c0-.037-.004-.059-.012-.064-.008-.005-.033-.008-.076-.008-.416.187-.675.328-.776.424l-.04.068c-.005.008-.019.012-.04.012 0-.043-.085.056-.256.296l-.168.248a.23.23 0 0 0-.06.16c-.003.07-.005.11-.008.12a.082.082 0 0 0 0 .036.277.277 0 0 0 .008.032c.003.008.01.019.024.032a.347.347 0 0 0 .036.032l.056.044.072.056c.485.363.744.605.776.728.09.165.12.288.088.368-.032.08-.105.147-.22.2-.115.053-.281.09-.5.108a1.963 1.963 0 0 1-.496-.004 1.082 1.082 0 0 1-.28-.164.785.785 0 0 1-.184-.188c0-.075.017-.115.052-.12.035-.005.199.005.492.032a2.1 2.1 0 0 0 .4-.044c.15-.03.232-.063.248-.1.016-.01.003-.04-.04-.088zm3.288-4.304c.032.08.048.144.048.192 0 .048-.012.09-.036.124a4.274 4.274 0 0 0-.164.292c-.07.256-.128.437-.176.544a2.396 2.396 0 0 0-.092.224 7.093 7.093 0 0 1-.116.312 9.71 9.71 0 0 0-.22.656c-.083.272-.144.441-.184.508-.04.067-.084.236-.132.508-.08.24-.12.381-.12.424a3.203 3.203 0 0 0-.064.316 1.308 1.308 0 0 1-.088.332c-.016.176-.104.221-.264.136-.107-.059-.16-.139-.16-.24 0-.101.032-.27.096-.504.032-.261.083-.45.152-.568.219-.741.336-1.15.352-1.224a22.8 22.8 0 0 1 .2-.548c.085-.227.143-.383.172-.468.03-.085.075-.237.136-.456.061-.219.113-.363.156-.432.08-.123.133-.21.16-.264.005-.032.039-.045.1-.04a.198.198 0 0 1 .14.064c.037-.01.072.027.104.112zm.136 2.416c.027-.037.07-.047.128-.028a.35.35 0 0 1 .156.104c.045.05.061.133.048.248-.013.115-.073.36-.18.736s-.155.655-.144.836c-.032.245-.056.37-.072.376-.09.037-.17-.004-.24-.124a.854.854 0 0 1-.12-.324c.021-.203.037-.347.048-.432.043-.197.11-.468.204-.812.093-.344.15-.537.172-.58zm.312-1.448c.01-.08.04-.155.088-.224.048-.07.097-.105.148-.108.05-.003.13.017.236.06a.39.39 0 0 1 .06.112l.064.156a.822.822 0 0 1 .056.192.21.21 0 0 1 0 .1 3.07 3.07 0 0 1-.028.088.296.296 0 0 1-.112.144c-.053.037-.112.035-.176-.008-.053-.005-.124-.052-.212-.14-.088-.088-.133-.153-.136-.196a.916.916 0 0 1 .012-.176zm3.8-1.128c.027 0 .067.02.12.06.053.04.088.09.104.148 0 .176-.11.525-.332 1.048-.221.523-.356.855-.404.996a6.782 6.782 0 0 1-.132.36l-.096.236c-.024.059-.045.13-.064.212a2.98 2.98 0 0 1-.128.38 13.26 13.26 0 0 0-.32.904 1.527 1.527 0 0 0-.028.116.612.612 0 0 0-.016.116c0 .027-.001.063-.004.108a.622.622 0 0 0 .004.124c.005.037.01.084.012.14.003.056-.02.1-.068.132-.059.021-.101.028-.128.02a.739.739 0 0 1-.168-.116c-.053-.085-.08-.235-.08-.448.016-.15.077-.415.184-.796.107-.381.184-.628.232-.74.032-.128.039-.207.02-.236-.019-.03-.081-.05-.188-.06a.701.701 0 0 0-.548.184c-.168.144-.355.377-.56.7-.205.323-.279.58-.22.772.07.107.235.09.496-.048.032-.016.133-.061.304-.136.059 0 .088.033.088.1s.027.11.08.132c.032.032-.012.09-.132.176-.12.085-.233.16-.34.224a1.252 1.252 0 0 1-.384.056.542.542 0 0 1-.288-.104c-.299-.181-.341-.581-.128-1.2.139-.33.381-.675.728-1.032.085-.085.261-.168.528-.248.267-.08.464-.075.592.016.096.021.157.019.184-.008.027-.027.161-.352.404-.976a67.725 67.725 0 0 1 .444-1.124l.048-.128c.01-.03.021-.05.032-.06h.152zm1.736 2.552c-.08-.09-.2-.077-.36.04-.053.016-.132.075-.236.176a2.683 2.683 0 0 0-.268.3c-.075.099-.099.156-.072.172-.005.01.001.019.02.024.019.005.043.01.072.012l.084.008a.362.362 0 0 0 .076 0c.024-.003.077-.01.16-.024.083-.013.135-.024.156-.032a.843.843 0 0 0 .112-.06c.064-.037.157-.144.28-.32.037-.144.03-.243-.024-.296zm-1.76.432l.136-.016c.075 0 .112.016.112.048.037.07.096.05.176-.056a1.02 1.02 0 0 0 .08-.136c.075-.117.185-.241.332-.372.147-.13.268-.223.364-.276a.902.902 0 0 1 .456-.092c.139.013.28.097.424.252.09.07.14.176.148.32a.687.687 0 0 1-.076.376c-.021.08-.105.181-.252.304a1.514 1.514 0 0 1-.404.256 2.352 2.352 0 0 1-.424.052c-.17.008-.283-.001-.336-.028-.037-.021-.067.012-.088.1-.021.088-.039.21-.052.368-.013.157-.01.253.012.288.021.035.043.06.064.076.187.192.384.203.592.032.064-.059.135-.128.212-.208.077-.08.135-.136.172-.168.043-.075.133-.093.272-.056.053.048.079.093.076.136a.536.536 0 0 1-.064.184.931.931 0 0 1-.216.26 2.526 2.526 0 0 1-.276.22.992.992 0 0 1-.848.064c-.208-.085-.343-.204-.404-.356s-.079-.348-.052-.588c.027-.24.037-.39.032-.448-.005-.059-.023-.101-.052-.128a2.439 2.439 0 0 1-.084-.08c-.059-.059-.09-.105-.096-.14a.278.278 0 0 1 .012-.12c.013-.045.03-.068.052-.068zm3.808 1.48l-.144-.056c0-.048-.077-.107-.232-.176-.293-.24-.427-.379-.4-.416v-.04c-.037 0-.079-.052-.124-.156a.742.742 0 0 1-.068-.296c0-.093.041-.225.124-.396a1.52 1.52 0 0 1 .316-.44 3.76 3.76 0 0 1 .552-.416c.49-.32.84-.419 1.048-.296.16.096.272.23.336.4 0 .336-.048.504-.144.504-.027 0-.04.021-.04.064s-.04.099-.12.168c-.235.17-.368.184-.4.04-.027-.053-.05-.08-.072-.08-.032-.016-.048-.05-.048-.104l.048-.088c.032 0 .085-.063.16-.188s.112-.207.112-.244c0-.037-.004-.059-.012-.064-.008-.005-.033-.008-.076-.008-.416.187-.675.328-.776.424l-.04.068c-.005.008-.019.012-.04.012 0-.043-.085.056-.256.296l-.168.248a.23.23 0 0 0-.06.16c-.003.07-.005.11-.008.12a.082.082 0 0 0 0 .036.277.277 0 0 0 .008.032c.003.008.01.019.024.032a.347.347 0 0 0 .036.032l.056.044.072.056c.485.363.744.605.776.728.09.165.12.288.088.368-.032.08-.105.147-.22.2-.115.053-.281.09-.5.108a1.963 1.963 0 0 1-.496-.004 1.082 1.082 0 0 1-.28-.164.785.785 0 0 1-.184-.188c0-.075.017-.115.052-.12.035-.005.199.005.492.032a2.1 2.1 0 0 0 .4-.044c.15-.03.232-.063.248-.1.016-.01.003-.04-.04-.088zm5.28.12c.08-.032.227-.19.44-.472.213-.283.32-.443.32-.48 0-.037.035-.096.104-.176.096-.096.33-.536.704-1.32.325-1.04.504-1.639.536-1.796.032-.157.077-.321.136-.492.032-.01.139.03.32.12.048.059.059.147.032.264-.139.656-.253 1.108-.344 1.356-.09.248-.17.452-.236.612l-.152.364c-.035.083-.093.217-.176.404l-.172.392v.048a.506.506 0 0 0-.176.204c-.053.099-.09.153-.112.164l-.072.184c-.005.032-.037.065-.096.1-.059.035-.095.07-.108.108a.836.836 0 0 1-.028.072 4.748 4.748 0 0 1-.648.768c-.421.416-.79.587-1.104.512a1.05 1.05 0 0 1-.712-.78c-.096-.387-.061-.999.104-1.836.08-.39.217-.855.412-1.396.195-.541.372-.952.532-1.232.16-.28.272-.452.336-.516s.128-.09.192-.08c.15.043.237.13.264.26.027.13-.024.241-.152.332-.064.07-.155.219-.272.448-.117.23-.197.384-.24.464-.33.95-.539 1.664-.624 2.144a6.564 6.564 0 0 0-.168 1.368c.01.021.025.048.044.08a.746.746 0 0 1 .04.076c.008.019.02.039.036.06a.165.165 0 0 0 .088.064c.176.085.392.053.648-.096a.351.351 0 0 1 .168-.144c.016.021.028.028.036.02a.171.171 0 0 0 .028-.052c-.005-.027.019-.067.072-.12zm5.08-4.128c-.32-.085-.557-.121-.712-.108-.155.013-.25.095-.288.244 0 .016-.055.141-.164.376-.11.235-.188.416-.236.544-.336.683-.508 1.047-.516 1.092-.008.045-.004.076.012.092.219-.016.528-.107.928-.272a4.288 4.288 0 0 0 1.032-.66c.304-.264.448-.521.432-.772 0-.101-.053-.208-.16-.32a.746.746 0 0 0-.328-.216zm-1.248-.584c.56-.128 1.067-.072 1.52.168.63.368.837.824.624 1.368-.085.213-.301.465-.648.756-.347.29-.67.5-.968.628a7.566 7.566 0 0 1-.864.312c-.096.027-.203.04-.32.04l.016.008c.123.272.36.603.712.992.165.192.392.412.68.66.288.248.536.423.744.524.043.048.048.115.016.2s-.067.133-.104.144c-.101.037-.24 0-.416-.112-.501-.299-1-.733-1.496-1.304a2.873 2.873 0 0 1-.52-.816l-.016.04c-.16.544-.403 1.245-.728 2.104-.048.139-.16.136-.336-.008-.085-.085-.128-.15-.128-.192 0-.043.075-.232.224-.568.032-.192.11-.413.232-.664.027-.09.236-.615.628-1.572.392-.957.67-1.615.836-1.972.064-.17.032-.256-.096-.256-.128-.139-.13-.243-.008-.312l.416-.168zm2.432 4.056l.04-.2c0-.09.013-.136.04-.136.027 0 .04-.01.04-.032 0-.021.005-.048.016-.08.032-.096.053-.165.064-.208.027-.048.064-.141.112-.28.128-.39.212-.635.252-.736.04-.101.063-.165.068-.192.075-.128.112-.224.112-.288.037-.107.19-.421.46-.944.27-.523.456-.85.56-.984.104-.133.201-.2.292-.2.043.016.099.06.168.132.07.072.105.124.108.156.003.032-.043.116-.136.252-.093.136-.183.25-.268.34l-.032.08c-.23.395-.352.643-.368.744-.053.064-.152.261-.296.592-.144.33-.219.499-.224.504 0 .064-.008.108-.024.132a.783.783 0 0 0-.064.156c-.07.224-.136.397-.2.52-.085.347-.17.563-.256.648-.027.064-.036.096-.028.096h.028c.027-.027.04-.03.04-.012 0 .019-.013.05-.04.092a1.107 1.107 0 0 0-.072.44c.005.155.03.261.072.32.043.059.13.085.264.08.299-.01.592-.053.88-.128.379-.123.624-.115.736.024a.344.344 0 0 1 .064.192c-.032.048-.224.117-.576.208-.352.09-.63.143-.836.156a4.45 4.45 0 0 1-.352.016 2.867 2.867 0 0 1-.308-.084 3.91 3.91 0 0 1-.304-.232l-.04-.088c-.032 0-.053-.077-.064-.232-.01-.155-.01-.319.004-.492.013-.173.036-.284.068-.332zm6.976-.688a.968.968 0 0 0 .044-.348c-.003-.147-.025-.23-.068-.252-.15-.085-.325-.045-.528.12-.267.23-.53.635-.792 1.216-.112.267-.104.453.024.56.16.133.424 0 .792-.4.23-.261.405-.56.528-.896zm-1.544-.056c.357-.592.773-.944 1.248-1.056a.732.732 0 0 1 .244-.04c.05.005.113.048.188.128a.65.65 0 0 1 .268.192.669.669 0 0 1 .108.328c.043.416-.096.853-.416 1.312a2.25 2.25 0 0 1-.344.404 3.063 3.063 0 0 1-.424.3 1.304 1.304 0 0 1-.624.232c-.09 0-.195-.05-.312-.152-.203-.208-.288-.405-.256-.592l.016-.184c-.027-.027-.033-.048-.02-.064a.568.568 0 0 1 .028-.032c.032 0 .043-.025.032-.076-.01-.05.01-.15.064-.296.053-.147.12-.281.2-.404zm3 1.656c-.053.075-.101.112-.144.112-.043 0-.107-.043-.192-.128a.339.339 0 0 1-.104-.12c-.032-.075.021-.408.16-1 .016-.133.11-.413.28-.84.17-.427.31-.717.416-.872.107-.08.21-.07.312.032.053.043.064.115.032.216-.043.139-.13.35-.26.636-.13.285-.188.428-.172.428.016 0 .04-.01.072-.032.059-.101.201-.24.428-.416.227-.176.37-.279.428-.308a2.48 2.48 0 0 1 .188-.084l.116-.048a.64.64 0 0 1 .372-.064c.13.016.212.064.244.144 0 .053.032.096.096.128l.04.048c0 .048-.07.076-.208.084-.139.008-.293.05-.464.124a1.133 1.133 0 0 1-.132.076c-.067.035-.112.06-.136.076-.024.016-.065.04-.124.072a1.278 1.278 0 0 0-.132.08l-.116.08c-.048.032-.09.061-.124.088l-.116.088c-.165.139-.32.33-.464.576-.037.037-.076.135-.116.292-.04.157-.06.255-.06.292a.636.636 0 0 1-.12.24zm7.512-4.832c.299-.032.5-.041.604-.028.104.013.175.057.212.132.064.224.016.328-.144.312-.09.021-.31.037-.656.048-.379.032-.581.07-.608.112a.487.487 0 0 0-.056.072.477.477 0 0 1-.048.064c.01.059-.016.181-.08.368s-.128.384-.192.592c-.17.523-.273.821-.308.896a.995.995 0 0 0-.076.256c-.107.368-.22.739-.34 1.112-.12.373-.204.65-.252.832l.596-.056c.28-.027.46-.036.54-.028.08.008.133.047.16.116.139.187.112.301-.08.344-.096.021-.245.03-.448.024-.443.016-.724.032-.844.048s-.185.048-.196.096c0 .08-.075.09-.224.032-.07-.096-.312-.136-.728-.12a.518.518 0 0 1-.312-.048c-.096-.048-.133-.107-.112-.176.01-.139.232-.21.664-.216l.424-.008.08-.16c.043-.123.09-.27.14-.44.05-.17.11-.36.18-.568.181-.555.28-.864.296-.928.08-.17.168-.456.264-.856.245-.768.347-1.16.304-1.176a3.275 3.275 0 0 0-.436.028c-.237.024-.37.044-.396.06-.027.037-.072.045-.136.024-.064-.021-.104-.059-.12-.112-.016-.09.001-.155.052-.192.05-.037.176-.087.376-.148s.401-.103.604-.124c.203-.021.357-.077.464-.168a.75.75 0 0 1 .28-.048c.064.043.248.053.552.032zm2.856.368c-.032-.048-.136-.092-.312-.132a1.986 1.986 0 0 0-.408-.06c-.021.027-.036.079-.044.156a1.69 1.69 0 0 1-.132.4c-.08.19-.152.308-.216.356-.373.97-.605 1.595-.696 1.872a.978.978 0 0 1-.184.256c-.187.805-.35 1.405-.488 1.8l.2.016c.144.01.35-.037.616-.144l.192-.032c.043 0 .25-.096.624-.288.373-.192.595-.304.664-.336.032-.032.108-.104.228-.216.12-.112.196-.19.228-.232a.658.658 0 0 0 .168-.156.554.554 0 0 1 .12-.124c.016 0 .06-.063.132-.188.072-.125.148-.252.228-.38.08-.128.13-.227.152-.296.021-.07.047-.239.076-.508.03-.27.021-.485-.024-.648-.045-.163-.161-.356-.348-.58-.155-.203-.304-.344-.448-.424a.704.704 0 0 1-.184-.048 1.519 1.519 0 0 0-.144-.064zm-2.12-.08c-.059.016-.085-.008-.08-.072a.425.425 0 0 1 .16-.296c.181-.112.461-.17.84-.176.379-.005.717.028 1.016.1.299.072.597.201.896.388.363.245.627.592.792 1.04.16.373.15.861-.032 1.464a3.831 3.831 0 0 1-.628 1.124c-.296.381-.59.65-.884.804-.219.101-.355.16-.408.176-.037.048-.22.143-.548.284a21.96 21.96 0 0 0-.556.244c-.101-.005-.179.019-.232.072a1.75 1.75 0 0 1-.544.056l-.344.016-.088-.176c-.09-.08-.14-.14-.148-.18-.008-.04.01-.143.052-.308.021-.139.072-.37.152-.692.08-.323.147-.559.2-.708a.902.902 0 0 1 .128-.376l.088-.272.256-.68c.07-.139.204-.46.404-.964.2-.504.321-.796.364-.876.01-.048.004-.077-.02-.088a1.367 1.367 0 0 0-.268-.032 3.3 3.3 0 0 0-.568.128z" fill-rule="nonzero"/><path d="M21.625 26.881c.488-.05.512-.795 0-.783-3.36.078-6.716.252-10.073.416-1.397.068-3.05.403-4.438.147-2.367-.438-2.032-3.033-2.112-4.858A259.256 259.256 0 0 1 4.866 3.39l1.28 1.07c1.157.966 2.827-.709 1.66-1.668C7.037 2.16 6.273 1.522 5.5.896 4.928.433 4.36-.087 3.564.012 2.064.2 1.031 2.562.181 3.598c-.56.684.3 1.577.974.98.46-.408.96-.76 1.44-1.141.117-.092.247-.223.384-.362-.062 3.931-.032 7.86.111 11.79.124 3.383-.116 7.263.736 10.548.688 2.657 2.878 2.706 5.207 2.525 4.2-.327 8.402-.624 12.592-1.057"/></g></svg>
