<svg xmlns="http://www.w3.org/2000/svg" width="24" height="24" viewBox="0 0 24 24">
  <g fill="none" fill-rule="evenodd">
    <rect width="24" height="24"/>
    <path fill="#FA903E" fill-rule="nonzero" d="M12,1.5 C14.1745455,1.5 15.951809,3.20509948 16.0575251,5.34570056 L16.0625,5.54761905 L16.0625,7.16666667 L16.875,7.16666667 C17.7190972,7.16666667 18.4182485,7.81653439 18.4933267,8.63889787 L18.5,8.78571429 L18.5,16.8809524 C18.5,17.7219577 17.8477431,18.4185479 17.0223562,18.4933511 L16.875,18.5 L7.125,18.5 C6.28090278,18.5 5.58175154,17.8501323 5.50667331,17.0277688 L5.5,16.8809524 L5.5,8.78571429 C5.5,7.94470899 6.15225694,7.24811875 6.97764382,7.17331553 L7.125,7.16666667 L7.9375,7.16666667 L7.9375,5.54761905 C7.9375,3.31333333 9.7575,1.5 12,1.5 Z M12,11.2142857 C11.10625,11.2142857 10.375,11.9428571 10.375,12.8333333 C10.375,13.7238095 11.10625,14.452381 12,14.452381 C12.89375,14.452381 13.625,13.7238095 13.625,12.8333333 C13.625,11.9428571 12.89375,11.2142857 12,11.2142857 Z M12,3.03809524 C10.610625,3.03809524 9.48125,4.16333333 9.48125,5.54761905 L9.48125,5.54761905 L9.48125,7.16666667 L14.51875,7.16666667 L14.51875,5.54761905 C14.51875,4.16333333 13.389375,3.03809524 12,3.03809524 Z"/>
  </g>
</svg>
